<svg xmlns="http://www.w3.org/2000/svg" width="2017" height="1702" viewBox="0 0 2017 1702" version="1.1">
	<path d="M 35.571 1.571 C 33.235 3.907, 33.672 7.389, 37.386 16.026 C 37.932 17.295, 37.071 17.548, 32.271 17.526 C 26.581 17.500, 26.496 17.542, 26.219 20.500 C 25.778 25.196, 32.337 35.285, 39.933 41.597 C 50.162 50.097, 66.268 56.958, 76.144 57.022 C 78.940 57.040, 79.750 57.582, 81 60.272 C 83.082 64.752, 89.613 67.784, 99 68.627 C 106.067 69.262, 106.686 69.516, 109.723 73.027 C 114.690 78.772, 120.937 81.300, 130.843 81.575 L 139.186 81.807 141.457 86.709 C 145.333 95.077, 154.548 101.628, 168.481 105.925 C 174.188 107.685, 176.374 109.009, 180.453 113.174 C 191.140 124.088, 205.194 132.031, 220 135.525 C 232.952 138.581, 241.249 142.936, 243.040 147.617 C 243.745 149.462, 244.857 149.794, 251.675 150.201 C 260.484 150.727, 266.759 153.315, 269.699 157.634 C 273.989 163.937, 282.648 172.170, 287.463 174.526 C 290.298 175.913, 295.367 177.608, 298.727 178.294 C 304.103 179.390, 304.719 179.751, 303.854 181.296 C 303.314 182.261, 303.013 184.255, 303.186 185.727 C 303.625 189.469, 308.146 191.805, 317.626 193.187 L 325.500 194.334 325.500 198.756 C 325.500 203.548, 327.739 206.284, 333.250 208.226 C 335.716 209.095, 336.001 209.677, 336.006 213.848 C 336.018 223.850, 340.385 231.327, 346.987 232.647 C 349.442 233.138, 350.616 234.282, 352.519 238.037 C 355.366 243.655, 359.240 247, 362.900 247 C 365.140 247, 365.785 247.715, 367.240 251.814 C 368.321 254.856, 370.616 258.189, 373.475 260.869 C 375.964 263.202, 378 265.501, 378 265.978 C 378 267.874, 383.630 273.380, 387.205 274.981 C 390.218 276.329, 391.659 277.989, 394.247 283.088 C 396.294 287.122, 398.691 290.242, 400.711 291.500 C 403.052 292.958, 403.933 294.255, 403.961 296.282 C 404.017 300.279, 406.421 305.481, 409.070 307.336 C 411.066 308.734, 411.321 309.676, 411.109 314.863 C 410.798 322.487, 412.314 328.007, 415.557 331.054 C 416.976 332.387, 419.569 336.177, 421.319 339.476 C 424.836 346.108, 430.790 352.660, 433.763 353.170 C 434.821 353.351, 437.670 355.919, 440.093 358.876 C 442.517 361.833, 446.214 365.208, 448.310 366.376 C 451.269 368.026, 452.627 369.752, 454.390 374.108 C 458.489 384.230, 464.547 391.737, 470.419 393.969 C 471.794 394.492, 473.144 396.406, 474.030 399.091 C 476.836 407.593, 485.744 419, 489.578 419 C 490.298 419, 493.215 421.462, 496.062 424.472 C 505.420 434.366, 517.216 440, 528.576 440 C 533.816 440, 534.017 440.104, 535.460 443.558 C 536.277 445.515, 537.908 448.466, 539.082 450.116 C 540.257 451.765, 541.057 453.208, 540.859 453.321 C 540.662 453.435, 537.961 454.731, 534.857 456.201 C 528.328 459.293, 522.524 464.086, 520.449 468.099 C 517.449 473.901, 519.075 478.504, 526.461 485.116 L 529.421 487.766 520.969 492.016 C 510.474 497.293, 489.339 509.099, 482 513.784 C 470.143 521.354, 418.870 546, 414.979 546 C 411.131 546, 325.594 580.775, 315.587 586.407 C 312.012 588.419, 308.303 588.986, 286 590.931 C 271.975 592.154, 249.475 594.223, 236 595.529 C 213.538 597.705, 205.302 597.949, 137 598.462 C 40.752 599.185, 20.610 599.690, 13.431 601.560 C 0.331 604.972, -3.180 611.955, 2.903 622.500 C 4.489 625.250, 6.910 628.544, 8.283 629.820 L 10.779 632.141 7.293 638.820 C 4.149 644.847, 3.845 646.135, 4.188 652 C 4.396 655.575, 5.281 659.850, 6.154 661.500 C 10.137 669.027, 12.074 672.905, 14.506 678.225 C 20.233 690.755, 37.765 704.126, 60.698 713.457 L 66.375 715.766 66.119 721.300 C 65.613 732.219, 72.573 739.005, 89.060 743.668 C 98.800 746.424, 134.243 746.191, 158.568 743.212 C 177.821 740.855, 191.680 740.466, 199 742.078 C 201.475 742.623, 213.850 743.715, 226.500 744.504 C 252.144 746.103, 268.727 748.227, 276.987 750.969 C 280.954 752.285, 287.129 752.981, 299 753.450 C 381.224 756.697, 467.708 763.054, 490.760 767.546 C 495.017 768.375, 507.725 769.941, 519 771.026 C 572.922 776.215, 592.181 778.378, 612.500 781.528 C 724.913 798.954, 843.153 808.569, 936.164 807.848 L 972.828 807.564 984.183 818.532 C 990.428 824.564, 999.033 831.901, 1003.305 834.835 C 1011.274 840.308, 1021.322 845, 1025.075 845 C 1026.412 845, 1029.699 847.687, 1034.017 852.311 C 1042.342 861.226, 1050.033 865.435, 1062.356 867.822 C 1068.646 869.041, 1071.165 869.966, 1071.560 871.201 C 1072.948 875.541, 1082.316 888.107, 1088.373 893.754 C 1095.787 900.666, 1102.074 904.263, 1110.635 906.493 C 1113.752 907.305, 1116.387 908.089, 1116.489 908.235 C 1116.592 908.381, 1118.157 910.691, 1119.968 913.369 C 1128.087 925.378, 1142.995 938.392, 1152.319 941.612 C 1155.933 942.860, 1157.210 944.186, 1161.736 951.391 C 1174.066 971.019, 1192.481 986.114, 1209.961 990.922 C 1215.240 992.374, 1216.186 993.105, 1221.782 1000.065 C 1237.046 1019.049, 1256.079 1032.673, 1271.332 1035.535 C 1274.802 1036.185, 1275 1036.431, 1275 1040.074 C 1275 1046.004, 1278.637 1054.380, 1283.619 1059.921 C 1289.544 1066.512, 1298.074 1070.680, 1309.591 1072.614 C 1328.016 1075.708, 1336.460 1083.302, 1338.473 1098.592 L 1339.144 1103.683 1346.308 1107.092 C 1356.135 1111.768, 1369.931 1121.074, 1374.451 1126.078 C 1378.590 1130.659, 1381.944 1137.233, 1381.978 1140.831 C 1381.998 1143.001, 1386.738 1150.914, 1390.765 1155.500 C 1394.946 1160.262, 1400.363 1164.063, 1404.430 1165.087 C 1408.752 1166.175, 1408.843 1166.287, 1411.522 1173.845 C 1420.647 1199.586, 1434.558 1216.329, 1450.767 1221.077 C 1454.967 1222.307, 1455.141 1222.541, 1461.892 1235.994 C 1483.166 1278.388, 1505.049 1301.925, 1524.861 1303.721 L 1530.934 1304.272 1535.115 1311.386 C 1552.053 1340.200, 1575.165 1367.687, 1592 1379.040 C 1598.933 1383.715, 1609.349 1387.998, 1613.795 1388.003 C 1616.111 1388.005, 1617.754 1389.765, 1625.227 1400.253 C 1647.046 1430.875, 1671.758 1456.020, 1694.992 1471.240 C 1700.866 1475.089, 1703.984 1478.129, 1709.435 1485.324 C 1752.472 1542.132, 1796.550 1588.400, 1827 1608.733 C 1840.962 1618.056, 1852.477 1622.828, 1862.288 1623.358 C 1867.860 1623.659, 1867.948 1623.714, 1877.486 1632.832 C 1898.259 1652.692, 1915.115 1661.466, 1931.331 1660.862 L 1938.682 1660.589 1945.591 1666.774 C 1960.299 1679.942, 1972.982 1688.005, 1983.200 1690.683 C 1989.021 1692.208, 1990.387 1692.262, 1993.620 1691.093 C 1997.236 1689.785, 1997.398 1689.828, 1999.377 1692.624 C 2003.009 1697.754, 2008.068 1702, 2010.548 1702 C 2014.829 1702, 2016.439 1697.913, 2016.829 1686.058 C 2017.152 1676.218, 2016.863 1674.257, 2012.570 1657.218 C 1986.302 1552.959, 1957.529 1462.061, 1937.798 1421 C 1918.722 1381.304, 1885.232 1293.776, 1874.475 1255.500 C 1868.260 1233.387, 1845.872 1173.712, 1827.877 1131.290 C 1816.696 1104.932, 1799.823 1071.065, 1793.106 1061.500 C 1790.402 1057.650, 1782.546 1043.250, 1775.647 1029.500 C 1745.665 969.742, 1717.099 923.137, 1690.412 890.441 C 1672.510 868.509, 1634.751 838.685, 1567.174 793.102 C 1529.043 767.381, 1447.526 709.995, 1447.058 708.543 C 1446.582 707.066, 1463.185 697.461, 1472.327 693.923 C 1482.593 689.951, 1496.487 687.030, 1505.199 687.013 C 1527.461 686.969, 1568.172 696.112, 1581.265 704.095 C 1585.342 706.581, 1587.074 707.005, 1593.265 707.035 C 1611.719 707.124, 1627.035 712.735, 1637.212 723.135 C 1643.821 729.890, 1643.487 729.928, 1647.322 722 C 1650.608 715.206, 1650.428 700.753, 1646.954 692.492 C 1643.722 684.805, 1637.971 676.156, 1631.388 669.080 C 1620.460 657.334, 1573.348 631.370, 1541.500 619.541 C 1529.900 615.233, 1526.453 612.400, 1522.144 603.629 C 1519.480 598.205, 1518.057 593.411, 1513.946 576 C 1512.327 569.144, 1504.720 557.829, 1494.644 547.289 C 1472.875 524.519, 1441.968 503.982, 1395.520 481.426 C 1330.589 449.893, 1228.553 418.165, 1130.500 399.016 C 1113.791 395.752, 1070.785 388.622, 1060.591 387.424 C 1054.972 386.764, 1054.235 386.332, 1045.591 378.650 C 1000.964 338.985, 961.351 289.795, 940.780 248.500 C 932.446 231.771, 929.318 223.101, 928.641 214.862 C 927.523 201.243, 921.700 189.886, 909.500 177.533 C 893.084 160.911, 868.061 148.398, 833.368 139.464 C 810.761 133.643, 718.345 118.961, 664 112.557 C 604.179 105.508, 576.189 103.713, 523 103.514 C 476.661 103.340, 469.009 102.936, 418 97.976 C 255.842 82.206, 128.617 51.142, 64 11.542 C 46.237 0.656, 39.019 -1.876, 35.571 1.571" stroke="none" fill="black" fill-rule="evenodd"/>
</svg>