<svg xmlns="http://www.w3.org/2000/svg" width="1186" height="902" viewBox="0 0 1186 902" version="1.1">
	<path d="M 436.500 62.923 C 420.559 69.125, 415.403 73.020, 398.016 91.992 C 387.807 103.132, 381.913 110.767, 372.537 124.992 C 355.046 151.532, 344.636 167.758, 341.415 173.500 C 339.873 176.250, 332.991 186.825, 326.122 197 C 301.765 233.083, 290.282 248.151, 273.933 265.479 C 269.771 269.891, 265.432 274.850, 264.291 276.500 C 261.743 280.184, 240.136 301.930, 229.394 311.622 C 225.052 315.538, 219.925 321.303, 218 324.432 C 216.075 327.561, 212.076 332.907, 209.112 336.311 C 195.296 352.184, 182.064 370.858, 174.968 384.500 C 167.233 399.370, 164.372 403.828, 156.358 413.500 C 147.112 424.659, 135.563 435.555, 126.467 441.703 C 123.148 443.945, 119.619 447.293, 118.623 449.142 C 116.987 452.179, 116.942 453.032, 118.156 457.993 L 119.500 463.484 140.421 473.992 L 161.343 484.500 196.036 519 C 215.117 537.975, 233.152 555.566, 236.114 558.091 C 246.413 566.871, 262.620 578.723, 282.500 592.014 C 300.720 604.195, 303.838 606.726, 317.530 620.443 C 325.797 628.724, 336.133 640.225, 340.499 646 C 344.866 651.775, 350.779 659.276, 353.639 662.668 C 356.499 666.061, 361.564 672.811, 364.895 677.668 C 368.226 682.526, 374.149 691, 378.057 696.500 C 381.965 702, 387.634 710.325, 390.656 715 C 399.962 729.400, 440.454 767.541, 456.500 777.021 C 458.700 778.321, 464.327 782.111, 469.004 785.442 C 479.542 792.950, 506.630 805.814, 513.652 806.645 C 523.141 807.769, 534.183 800.442, 558.986 776.566 C 578.226 758.044, 583.907 751.682, 594.763 736.500 C 599.482 729.900, 607.682 719.325, 612.985 713 C 626.849 696.464, 632.550 688.539, 643.558 670.500 C 653.976 653.429, 658.318 644.710, 661.985 633.500 C 664.700 625.199, 669.902 612.363, 673.351 605.452 C 674.711 602.728, 677.499 595.325, 679.547 589 C 684.719 573.028, 685.032 572.229, 687.198 569.475 C 688.255 568.132, 693.148 564.952, 698.072 562.409 C 702.995 559.866, 707.918 556.648, 709.012 555.258 C 712.091 551.344, 711.657 545.097, 707.879 538.958 L 704.758 533.886 707.129 531.347 C 710.424 527.819, 722.793 519.413, 733.420 513.480 C 750.042 504.200, 757.118 495.296, 759.123 481.133 C 760.704 469.970, 761.877 467.196, 765.523 465.993 C 767.617 465.301, 785.164 464.932, 815.623 464.938 C 841.405 464.943, 872.400 464.458, 884.500 463.860 C 916.458 462.280, 924.916 462.423, 939.500 464.791 C 957.675 467.742, 971.959 468.301, 998 467.082 C 1019.883 466.058, 1023.622 465.538, 1048.500 460.067 C 1051.250 459.462, 1060.475 457.562, 1069 455.844 C 1098.425 449.916, 1097.359 450.336, 1098.337 444.312 C 1099.019 440.110, 1097.074 435.152, 1093.988 433.224 C 1089.075 430.156, 1059.417 426, 1042.436 426 C 1036.364 426, 1020.665 427.563, 1002.930 429.933 C 964.184 435.111, 960.603 435.372, 946.500 434.041 C 939.900 433.418, 915.600 432.248, 892.500 431.440 C 869.400 430.632, 847.449 429.543, 843.719 429.020 C 839.989 428.498, 826.039 427.380, 812.719 426.538 C 786.142 424.856, 781.061 424.384, 773.250 422.874 L 768 421.858 768 413.887 C 768 403.846, 765.714 392.654, 761.718 383.135 C 759.163 377.049, 756.464 373.322, 746.481 362.097 C 733.366 347.349, 728.071 342.397, 721.031 338.291 C 712.921 333.562, 708.166 328.848, 704.653 322.057 C 700.114 313.281, 699.708 310.302, 701.595 299.601 C 703.517 288.697, 702.965 278.812, 700.125 273.244 C 697.790 268.667, 692.058 263.340, 687.355 261.375 C 683.026 259.566, 672.559 259.623, 666.409 261.489 C 663.709 262.308, 661.435 262.983, 661.355 262.989 C 660.977 263.017, 653.362 243.301, 649.965 233.500 C 644.415 217.484, 641.048 210.594, 633.839 200.500 C 630.304 195.550, 625.274 188.467, 622.662 184.759 C 618.054 178.220, 599.092 159.895, 581.920 145.386 C 570.163 135.453, 540.299 113.253, 515.956 96.352 C 504.657 88.507, 492.732 79.739, 489.456 76.869 C 478.319 67.108, 471.243 63.227, 461.482 61.525 C 449.600 59.453, 444.718 59.726, 436.500 62.923" stroke="none" fill="black" fill-rule="evenodd"/>
</svg>