<svg height="600" width="600" xmlns="http://www.w3.org/2000/svg">
<title>Your Diagram Title</title>
<!-- Generated with SankeyMATIC: 2/5/2026, 3:05:21 PM -->
<g transform="translate(68.53386,18)">
<g id="sankey_flows">
<path id="flow1" d="M12 157.33106C230.2004 157.33106 230.2004 212.99256 448.40079 212.99256" fill="none" stroke-width="60.79467" stroke="#2166AC" opacity="0.45"><title>III → 2010: 1.033300</title></path>
<path id="flow8" d="M12 217.02845C230.2004 217.02845 230.2004 372.86421 448.40079 372.86421" fill="none" stroke-width="58.60011" stroke="#c85200" opacity="0.45"><title>III → 2016: 0.996000</title></path>
<path id="flow2" d="M12 302.37621C230.2004 302.37621 230.2004 264.75011 448.40079 264.75011" fill="none" stroke-width="42.72042" stroke="#2166AC" opacity="0.45"><title>IV → 2010: 0.726100</title></path>
<path id="flow9" d="M12 344.9819C230.2004 344.9819 230.2004 423.40975 448.40079 423.40975" fill="none" stroke-width="42.49096" stroke="#c85200" opacity="0.45"><title>IV → 2016: 0.722200</title></path>
<path id="flow7" d="M12 77.82565C230.2004 77.82565 230.2004 329.14359 448.40079 329.14359" fill="none" stroke-width="28.84114" stroke="#c85200" opacity="0.45"><title>II → 2016: 0.490200</title></path>
<path id="flow0" d="M12 49.04629C230.2004 49.04629 230.2004 168.23643 448.40079 168.23643" fill="none" stroke-width="28.71758" stroke="#2166AC" opacity="0.45"><title>II → 2010: 0.488100</title></path>
<path id="flow3" d="M12 386.97473C230.2004 386.97473 230.2004 291.17017 448.40079 291.17017" fill="none" stroke-width="10.1197" stroke="#2166AC" opacity="0.45"><title>V → 2010: 0.172000</title></path>
<path id="flow10" d="M12 396.9797C230.2004 396.9797 230.2004 449.60035 448.40079 449.60035" fill="none" stroke-width="9.89024" stroke="#c85200" opacity="0.45"><title>V → 2016: 0.168100</title></path>
<path id="flow4" d="M12 432.17097C230.2004 432.17097 230.2004 296.78866 448.40079 296.78866" fill="none" stroke-width="1.11729" stroke="#2166AC" opacity="0.45"><title>VI → 2010: 0.018990</title></path>
<path id="flow11" d="M12 433.26884C230.2004 433.26884 230.2004 455.0847 448.40079 455.0847" fill="none" stroke-width="1.07845" stroke="#c85200" opacity="0.45"><title>VI → 2016: 0.018330</title></path>
<path id="flow5" d="M12 472.5281C230.2004 472.5281 230.2004 297.37984 448.40079 297.37984" fill="none" stroke-width="1" stroke="#2166AC" opacity="0.45"><title>VII → 2010: 0.001106</title></path>
<path id="flow12" d="M12 472.59093C230.2004 472.59093 230.2004 455.65422 448.40079 455.65422" fill="none" stroke-width="1" stroke="#c85200" opacity="0.45"><title>VII → 2016: 0.001030</title></path>
<path id="flow6" d="M12 527.30971C230.2004 527.30971 230.2004 297.41334 448.40079 297.41334" fill="none" stroke-width="1" stroke="#2166AC" opacity="0.45"><title>VIII → 2010: 0.000033</title></path>
<path id="flow13" d="M12 527.31159C230.2004 527.31159 230.2004 455.68543 448.40079 455.68543" fill="none" stroke-width="1" stroke="#c85200" opacity="0.45"><title>VIII → 2016: 0.000031</title></path>
</g>
<g id="sankey_nodes">
<g class="node">
<rect id="r0" class="for_r0" x="0" y="34.6875" height="57.55872" width="12" fill="#888888" fill-opacity="1"><title>II:
0.978300</title></rect>
</g>
<g class="node">
<rect id="r1" class="for_r1" x="448.40079" y="61.30579" height="143.53667" width="12" fill="#2166AC" fill-opacity="1" transform="translate(0,92.57185)"><title>2010:
2.439629</title></rect>
</g>
<g class="node">
<rect id="r2" class="for_r2" x="0" y="126.93372" height="119.39478" width="12" fill="#888888" fill-opacity="1"><title>III:
2.029300</title></rect>
</g>
<g class="node">
<rect id="r3" class="for_r3" x="0" y="281.016" height="85.21138" width="12" fill="#888888" fill-opacity="1"><title>IV:
1.448300</title></rect>
</g>
<g class="node">
<rect id="r4" class="for_r4" x="0" y="400.91489" height="20.00994" width="12" fill="#888888" fill-opacity="1" transform="translate(0,-19)"><title>V:
0.340100</title></rect>
</g>
<g class="node">
<rect id="r5" class="for_r5" x="0" y="455.61232" height="2.19574" width="12" fill="#888888" fill-opacity="1" transform="translate(0,-24)"><title>VI:
0.037320</title></rect>
</g>
<g class="node">
<rect id="r6" class="for_r6" x="0" y="492.49556" height="0.12567" width="12" fill="#888888" fill-opacity="1" transform="translate(0,-20)"><title>VII:
0.002136</title></rect>
</g>
<g class="node">
<rect id="r7" class="for_r7" x="0" y="527.30873" height="0.00377" width="12" fill="#888888" fill-opacity="1"><title>VIII:
0.000064</title></rect>
</g>
<g class="node">
<rect id="r8" class="for_r8" x="448.40079" y="239.52996" height="140.96333" width="12" fill="#c85200" fill-opacity="1" transform="translate(0,75.19306)"><title>2016:
2.395891</title></rect>
</g>
</g>
<g id="sankey_labels" font-family="sans-serif" font-size="16px" fill="#000000">
<rect id="label0_bg" class="for_r0" x="-55.4091" y="42.29086" width="53.90116" height="42.272" rx="4" fill="#fff" fill-opacity="0.75" stroke="none" stroke-width="0" stroke-opacity="0"></rect>
<text id="label0" class="for_r0" text-anchor="end" x="-6.29754" y="63.46686" font-weight="400" font-size="21.44px" dy="0.824">II<tspan x="-6.29754" dy="15.272" font-weight="400" font-size="10.56px">0.978300</tspan></text>
<rect id="label1_bg" class="for_r1" x="462.03349" y="111.89813" width="57.43269" height="42.272" rx="4" fill="#fff" fill-opacity="0.75" stroke="none" stroke-width="0" stroke-opacity="0" transform="translate(0,92.57185)"></rect>
<text id="label1" class="for_r1" text-anchor="start" x="466.69833" y="133.07413" font-weight="400" font-size="21.44px" dy="0.824" transform="translate(0,92.57185)">2010<tspan x="466.69833" dy="15.272" font-weight="400" font-size="10.56px">2.439629</tspan></text>
<rect id="label2_bg" class="for_r2" x="-55.4091" y="165.45511" width="53.90116" height="42.272" rx="4" fill="#fff" fill-opacity="0.75" stroke="none" stroke-width="0" stroke-opacity="0"></rect>
<text id="label2" class="for_r2" text-anchor="end" x="-6.29754" y="186.63111" font-weight="400" font-size="21.44px" dy="0.824">III<tspan x="-6.29754" dy="15.272" font-weight="400" font-size="10.56px">2.029300</tspan></text>
<rect id="label3_bg" class="for_r3" x="-55.4091" y="302.44571" width="54.46749" height="42.272" rx="4" fill="#fff" fill-opacity="0.75" stroke="none" stroke-width="0" stroke-opacity="0"></rect>
<text id="label3" class="for_r3" text-anchor="end" x="-6.29754" y="323.62169" font-weight="400" font-size="21.44px" dy="0.824">IV<tspan x="-6.29754" dy="15.272" font-weight="400" font-size="10.56px">1.448300</tspan></text>
<rect id="label4_bg" class="for_r4" x="-55.4091" y="389.74387" width="54.46391" height="42.272" rx="4" fill="#fff" fill-opacity="0.75" stroke="none" stroke-width="0" stroke-opacity="0" transform="translate(0,-19)"></rect>
<text id="label4" class="for_r4" text-anchor="end" x="-6.29754" y="410.91985" font-weight="400" font-size="21.44px" dy="0.824" transform="translate(0,-19)">V<tspan x="-6.29754" dy="15.272" font-weight="400" font-size="10.56px">0.340100</tspan></text>
<rect id="label5_bg" class="for_r5" x="-55.4091" y="435.53421" width="53.90116" height="42.272" rx="4" fill="#fff" fill-opacity="0.75" stroke="none" stroke-width="0" stroke-opacity="0" transform="translate(0,-24)"></rect>
<text id="label5" class="for_r5" text-anchor="end" x="-6.29754" y="456.71019" font-weight="400" font-size="21.44px" dy="0.824" transform="translate(0,-24)">VI<tspan x="-6.29754" dy="15.272" font-weight="400" font-size="10.56px">0.037320</tspan></text>
<rect id="label6_bg" class="for_r6" x="-55.4091" y="471.38242" width="53.90116" height="42.272" rx="4" fill="#fff" fill-opacity="0.75" stroke="none" stroke-width="0" stroke-opacity="0" transform="translate(0,-20)"></rect>
<text id="label6" class="for_r6" text-anchor="end" x="-6.29754" y="492.5584" font-weight="400" font-size="21.44px" dy="0.824" transform="translate(0,-20)">VII<tspan x="-6.29754" dy="15.272" font-weight="400" font-size="10.56px">0.002136</tspan></text>
<rect id="label7_bg" class="for_r7" x="-55.4091" y="506.13458" width="54.90116" height="42.27203" rx="4" fill="#fff" fill-opacity="0.75" stroke="none" stroke-width="0" stroke-opacity="0"></rect>
<text id="label7" class="for_r7" text-anchor="end" x="-6.29754" y="527.31062" font-weight="400" font-size="21.44px" dy="0.824">VIII<tspan x="-6.29754" dy="15.272" font-weight="400" font-size="10.56px">0.000064</tspan></text>
<rect id="label8_bg" class="for_r8" x="462.03349" y="288.83563" width="57.43269" height="42.272" rx="4" fill="#fff" fill-opacity="0.75" stroke="none" stroke-width="0" stroke-opacity="0" transform="translate(0,75.19306)"></rect>
<text id="label8" class="for_r8" text-anchor="start" x="466.69833" y="310.01163" font-weight="400" font-size="21.44px" dy="0.824" transform="translate(0,75.19306)">2016<tspan x="466.69833" dy="15.272" font-weight="400" font-size="10.56px">2.395891</tspan></text>
</g>
</g></svg>