<?xml version="1.0" standalone="no"?>
<!DOCTYPE svg PUBLIC "-//W3C//DTD SVG 20010904//EN"
 "http://www.w3.org/TR/2001/REC-SVG-20010904/DTD/svg10.dtd">
<svg version="1.0" xmlns="http://www.w3.org/2000/svg"
 width="1536.000000pt" height="798.000000pt" viewBox="0 0 1536.000000 798.000000"
 preserveAspectRatio="xMidYMid meet">
<metadata>
Created by potrace 1.16, written by Peter Selinger 2001-2019
</metadata>
<g transform="translate(0.000000,798.000000) scale(0.100000,-0.100000)"
fill="#000000" stroke="none">
<path d="M10317 5932 c-25 -43 -86 -102 -106 -102 -12 0 -20 12 -27 42 -11 52
-28 58 -44 16 -7 -18 -24 -50 -38 -71 -29 -44 -42 -35 -42 30 0 76 -33 63 -70
-28 -14 -34 -29 -62 -35 -63 -5 0 -11 18 -13 42 -3 34 -7 42 -22 42 -11 0 -27
-11 -36 -25 -9 -14 -24 -25 -34 -25 -11 0 -22 -12 -28 -30 -8 -21 -15 -28 -27
-24 -11 5 -14 2 -9 -10 4 -12 0 -16 -15 -16 -18 0 -21 6 -21 41 0 36 -2 40
-22 37 -14 -2 -25 -14 -32 -35 -15 -45 -84 -125 -104 -121 -11 2 -19 16 -22
38 -4 27 -10 36 -27 38 -18 3 -26 -5 -39 -37 -8 -22 -22 -42 -30 -45 -8 -3
-14 -11 -14 -19 0 -7 -11 -24 -25 -37 -32 -30 -44 -19 -52 49 -8 74 -28 80
-75 26 -21 -23 -43 -54 -49 -68 -19 -42 -67 -48 -54 -7 3 10 0 22 -6 26 -8 5
-34 -15 -71 -55 -33 -35 -61 -61 -63 -59 -1 1 -10 21 -20 43 -15 36 -18 38
-29 23 -7 -10 -18 -18 -24 -18 -13 0 -59 -54 -67 -79 -8 -25 -33 -17 -46 15
-9 24 -29 33 -29 13 0 -6 -9 -9 -20 -6 -13 3 -21 -1 -26 -16 -3 -11 -20 -33
-37 -48 l-31 -29 -23 21 c-19 19 -24 20 -36 7 -8 -8 -14 -26 -14 -40 0 -21
-16 -52 -49 -97 -8 -10 -78 27 -192 102 -238 157 -414 235 -597 266 -66 11
-140 26 -165 34 -25 8 -61 15 -80 16 -19 1 -75 7 -125 15 -90 14 -129 9 -138
-16 -4 -10 -7 -11 -18 0 -23 21 -67 15 -85 -13 -20 -30 -43 -32 -77 -5 -29 23
-47 26 -47 7 0 -7 -10 -23 -21 -36 -17 -18 -28 -22 -55 -17 -29 6 -35 3 -48
-23 -22 -41 -31 -45 -62 -25 -22 15 -27 15 -35 3 -5 -8 -9 -20 -9 -26 0 -7 -6
-13 -14 -13 -7 0 -19 -7 -26 -15 -7 -9 -21 -13 -31 -10 -13 4 -22 -2 -34 -25
-14 -26 -21 -31 -48 -28 -27 2 -33 -1 -35 -19 -2 -12 -12 -25 -23 -28 -10 -4
-19 -10 -19 -15 0 -5 -13 -7 -30 -3 -24 4 -30 2 -30 -12 0 -12 -6 -16 -20 -12
-12 3 -24 -1 -29 -11 -5 -9 -20 -17 -32 -17 -16 0 -25 -7 -27 -20 -5 -29 -31
-45 -74 -45 -27 0 -38 -4 -38 -15 0 -9 -11 -20 -24 -25 -13 -5 -26 -15 -28
-22 -3 -7 -20 -13 -39 -13 -28 0 -35 -4 -37 -22 -4 -30 -48 -63 -83 -63 -23 0
-31 -7 -43 -35 -12 -29 -20 -35 -44 -35 -21 0 -35 -8 -47 -26 -14 -22 -22 -25
-51 -21 -33 6 -34 5 -34 -30 0 -41 -29 -73 -67 -73 -13 0 -23 -6 -23 -14 0
-29 -35 -75 -65 -84 -16 -5 -29 -14 -27 -21 3 -15 -25 -62 -45 -74 -25 -15
-13 -38 47 -94 34 -31 59 -61 57 -67 -2 -6 -52 -16 -113 -23 -88 -9 -123 -8
-184 3 -146 27 -171 34 -252 72 -46 22 -94 43 -108 47 -14 4 -41 18 -60 30
-20 13 -78 44 -130 70 -52 27 -107 58 -122 71 -15 12 -61 41 -102 63 -40 23
-79 47 -85 55 -7 8 -51 34 -99 59 -48 24 -114 59 -147 77 -33 18 -82 45 -110
59 -27 14 -52 29 -55 33 -3 4 -22 14 -42 22 -20 9 -58 28 -85 44 -26 16 -91
48 -143 72 -52 23 -108 53 -125 65 -16 12 -73 45 -125 74 -96 52 -115 63 -160
92 -65 42 -166 89 -191 89 -32 0 -47 -16 -30 -33 16 -16 14 -42 -4 -57 -10 -9
-12 -16 -6 -24 12 -14 3 -56 -16 -74 -7 -8 -11 -18 -7 -23 3 -5 -2 -12 -10
-15 -17 -7 -22 -39 -7 -48 15 -10 0 -44 -22 -50 -16 -4 -18 -8 -9 -19 9 -10 9
-16 0 -25 -8 -8 -8 -15 2 -27 11 -14 10 -17 -9 -22 -18 -4 -21 -11 -17 -29 4
-13 1 -32 -6 -43 -9 -14 -9 -23 -1 -33 17 -20 1 -84 -19 -80 -21 3 -33 -15
-19 -31 5 -7 8 -22 5 -34 -3 -11 -1 -24 5 -27 21 -13 12 -36 -14 -36 -24 0
-33 -18 -18 -34 4 -4 8 -23 8 -42 0 -25 -4 -34 -17 -34 -25 0 -32 -19 -18 -48
7 -15 17 -36 22 -47 6 -13 5 -31 -1 -49 -6 -15 -11 -43 -11 -61 0 -28 -6 -37
-29 -50 l-29 -15 20 -42 c16 -33 18 -46 9 -60 -6 -11 -9 -23 -5 -29 7 -12 -15
-109 -29 -127 -11 -14 17 -52 39 -52 13 0 34 -30 34 -47 0 -5 -10 -13 -22 -18
-15 -7 -25 -23 -30 -50 -7 -32 -5 -44 12 -67 12 -16 19 -32 16 -37 -3 -5 1
-14 9 -21 8 -7 12 -17 9 -22 -3 -5 5 -21 17 -35 23 -24 23 -25 5 -38 -15 -11
-16 -17 -8 -28 7 -8 9 -17 5 -21 -4 -4 -1 -11 7 -16 12 -7 12 -12 2 -22 -6 -6
-12 -20 -12 -30 0 -10 -4 -18 -10 -18 -5 0 -10 -6 -10 -13 0 -23 73 -77 105
-77 22 0 18 -21 -5 -27 -21 -6 -27 -28 -9 -38 6 -4 8 -13 5 -21 -3 -7 -1 -16
4 -19 16 -10 11 -21 -15 -33 -30 -14 -32 -32 -5 -39 11 -3 20 -9 20 -14 0 -5
8 -9 18 -9 9 0 28 -12 41 -25 13 -14 32 -25 42 -25 10 0 19 -4 19 -10 0 -5
-10 -10 -22 -10 -34 0 -54 -16 -42 -32 14 -18 16 -61 3 -69 -16 -9 2 -61 22
-66 11 -3 19 -14 19 -24 0 -11 5 -19 10 -19 6 0 10 -6 10 -14 0 -7 11 -25 25
-40 14 -15 25 -31 25 -35 0 -4 11 -13 24 -20 21 -12 29 -9 85 29 33 23 61 45
61 49 0 12 93 69 125 77 17 4 35 12 40 19 6 6 57 33 115 59 58 27 138 64 177
82 40 19 103 46 140 60 38 15 75 33 84 41 8 7 18 13 22 13 3 0 59 25 122 55
64 30 118 55 120 55 3 0 46 21 97 46 51 25 120 57 153 70 33 14 79 34 102 45
24 10 47 19 52 19 6 0 16 9 24 20 15 21 64 44 142 67 28 8 74 25 103 39 29 13
60 24 69 24 9 0 27 9 39 21 27 25 81 28 214 11 95 -12 170 -19 223 -21 15 -1
27 -7 26 -13 0 -18 -188 -175 -268 -224 -59 -37 -98 -80 -100 -110 -1 -6 19
-11 47 -11 26 -1 66 -4 89 -8 40 -7 42 -9 36 -36 -4 -24 -2 -29 20 -35 15 -3
29 -15 32 -25 8 -24 16 -24 62 1 56 30 92 27 104 -9 14 -40 49 -53 119 -45 50
5 61 4 80 -14 18 -16 27 -19 47 -11 13 5 38 9 54 9 23 0 29 -4 29 -23 0 -34
48 -52 86 -32 44 23 73 19 80 -10 7 -30 29 -38 72 -26 20 6 34 6 38 0 3 -5 15
-7 26 -3 12 4 24 0 32 -11 11 -16 17 -16 51 -5 35 12 39 11 55 -9 16 -22 61
-33 133 -32 15 0 27 -5 27 -10 0 -5 31 -9 70 -9 60 0 71 -3 81 -21 9 -18 18
-21 55 -16 33 3 47 0 59 -13 14 -15 22 -16 52 -8 31 8 37 7 50 -12 12 -17 21
-19 49 -14 21 4 40 2 49 -6 8 -7 27 -10 42 -7 16 3 42 -1 58 -8 17 -7 61 -15
98 -18 67 -5 68 -4 65 19 -2 17 6 30 31 49 19 14 42 25 52 25 9 0 33 11 53 25
20 14 51 32 69 41 17 10 37 24 43 32 8 11 15 12 30 4 10 -5 53 -24 94 -42 41
-18 125 -56 185 -85 152 -73 255 -95 465 -100 65 -2 142 -10 177 -19 45 -12
98 -16 185 -15 68 2 170 2 228 1 58 -2 191 5 295 14 153 13 207 14 280 5 108
-14 181 -14 208 1 11 5 38 8 61 4 23 -3 67 0 98 6 32 7 61 9 65 5 4 -4 -33
-48 -83 -97 -92 -93 -119 -130 -96 -138 16 -5 15 -43 -3 -117 -8 -33 -15 -70
-15 -82 0 -27 34 -47 73 -45 31 3 32 1 11 -58 -9 -25 -20 -71 -24 -104 -11
-77 0 -95 56 -94 32 0 49 8 81 37 60 54 79 68 110 84 15 8 36 24 46 35 10 10
34 27 55 36 34 16 82 73 82 98 0 6 22 54 48 107 27 53 54 112 62 131 8 19 20
45 28 57 l14 23 50 -28 c27 -15 54 -35 59 -44 12 -23 35 -23 47 -1 7 11 24 17
50 18 35 1 47 9 112 73 l72 73 91 -2 c51 0 135 -10 187 -21 85 -18 102 -19
165 -8 38 7 138 14 220 16 161 3 276 16 328 37 45 19 103 31 162 34 123 5 374
22 410 28 163 27 279 84 356 175 22 26 55 53 72 60 42 15 123 55 169 83 124
75 199 117 206 117 5 0 16 8 26 19 9 10 36 27 59 37 23 10 53 32 67 48 14 17
37 41 51 56 36 35 61 86 57 118 -3 27 -5 27 -93 33 -50 4 -109 2 -133 -4 -52
-12 -190 -4 -223 13 -40 21 -69 52 -69 74 0 37 123 100 245 127 118 26 178 52
201 87 17 25 21 39 14 60 -14 48 -22 62 -34 62 -18 0 -209 100 -233 122 -13
12 -31 22 -40 23 -10 1 -71 27 -136 58 -64 31 -125 57 -134 57 -9 0 -66 24
-127 54 -147 73 -225 106 -245 106 -9 0 -34 9 -56 20 -22 11 -53 20 -70 20
-35 0 -101 22 -168 56 -27 13 -56 24 -66 24 -22 0 -135 40 -179 64 -19 9 -55
38 -80 63 -26 25 -55 49 -64 54 -25 14 -22 31 12 74 17 21 44 67 62 102 26 54
29 67 20 88 -10 21 -15 23 -35 16 -36 -14 -103 7 -143 44 -31 29 -33 36 -24
60 13 33 13 75 1 75 -5 0 -23 -12 -39 -27 -52 -48 -60 -53 -97 -53 -34 0 -35
1 -29 28 4 15 8 29 10 31 7 8 -17 41 -30 41 -8 0 -33 -16 -56 -35 -23 -19 -47
-35 -53 -35 -7 0 -22 -3 -34 -6 -20 -6 -21 -4 -12 36 6 28 6 46 -1 55 -14 16
-56 8 -102 -22 -64 -40 -70 -30 -42 76 8 34 13 65 10 69 -6 11 -86 7 -116 -5
-14 -6 -32 -18 -39 -27 -25 -30 -33 -17 -30 51 4 65 3 67 -23 74 -16 4 -30 4
-33 -1 -9 -15 -69 -20 -102 -8 -33 12 -34 14 -33 63 1 27 1 56 1 63 -1 17 -31
15 -31 -3 0 -24 -34 -35 -89 -28 -44 5 -51 9 -51 28 0 44 -12 84 -28 90 -11 4
-35 -15 -77 -61 -34 -36 -65 -63 -67 -58 -5 9 -4 21 7 81 9 48 -11 49 -59 3
-47 -45 -105 -84 -113 -76 -2 2 -6 29 -7 59 -2 33 -9 61 -18 70 -13 14 -16 12
-31 -11z"/>
</g>
</svg>
