<?xml version="1.0" encoding="UTF-8" standalone="no"?>
<!-- Created with Inkscape (http://www.inkscape.org/) -->

<svg
   xmlns:svg="http://www.w3.org/2000/svg"
   xmlns="http://www.w3.org/2000/svg"
   version="1.2"
   width="612"
   height="792"
   viewBox="0 0 612 792"
   id="Layer_1"
   xml:space="preserve"><defs
   id="defs7" />
    
    <path
   d="m 114.899,457.35 c 1,-0.066 2.033,-0.133 3.101,-0.199 l 4.149,-0.101 c 3.866,0 6.983,0.317 9.351,0.95 l 4.699,1.25 4.301,-5.75 c 0.433,-0.566 0.899,-1.15 1.399,-1.75 0.533,-0.633 1.083,-1.267 1.65,-1.9 0.6,-0.633 1.233,-1.283 1.899,-1.949 0.667,-0.7 1.367,-1.4 2.101,-2.101 0.733,-0.733 1.5,-1.45 2.3,-2.149 0.8,-0.734 1.617,-1.467 2.45,-2.2 0.833,-0.767 1.7,-1.517 2.6,-2.25 0.9,-0.767 1.817,-1.534 2.75,-2.3 0.934,-0.768 1.884,-1.533 2.851,-2.301 0.967,-0.766 1.949,-1.516 2.949,-2.25 1,-0.732 2,-1.467 3,-2.199 1.033,-0.768 2.051,-1.5 3.051,-2.2 3.133,-2.2 6.316,-4.317 9.55,-6.351 3.267,-2.066 6.55,-4.066 9.85,-6 3.333,-1.899 6.717,-3.75 10.15,-5.55 3.433,-1.8 6.917,-3.533 10.45,-5.2 3.533,-1.666 7.133,-3.266 10.8,-4.8 3.7,-1.566 7.433,-3.05 11.2,-4.45 3.8,-1.434 7.666,-2.8 11.6,-4.1 3.967,-1.333 7.983,-2.6 12.05,-3.8 l 24.601,-7.5 4.949,-1.9 c 0.601,-0.3 1.134,-0.583 1.601,-0.85 0.466,-0.267 0.917,-0.55 1.35,-0.85 l 2.4,-1.7 c 0.333,-0.233 0.649,-0.483 0.95,-0.75 0.3,-0.267 0.583,-0.517 0.85,-0.75 0.5,-0.533 0.934,-1.083 1.3,-1.65 0.2,-0.3 0.366,-0.617 0.5,-0.95 0.167,-0.367 0.317,-0.733 0.45,-1.1 0.133,-0.4 0.233,-0.817 0.3,-1.25 0.134,-0.467 0.233,-0.95 0.3,-1.45 0.067,-0.5 0.134,-1.05 0.2,-1.65 l 0.5,-12.9 c 0.033,-1.5 0.05,-3 0.05,-4.5 0,-1.467 -0.017,-2.934 -0.05,-4.4 0,-1.466 -0.033,-2.9 -0.1,-4.3 -0.034,-1.467 -0.101,-2.883 -0.2,-4.25 -0.066,-1.4 -0.15,-2.783 -0.25,-4.15 -0.1,-1.367 -0.217,-2.717 -0.35,-4.05 -0.134,-1.333 -0.283,-2.633 -0.45,-3.9 -0.134,-1.3 -0.284,-2.583 -0.45,-3.85 -0.167,-1.233 -0.367,-2.45 -0.6,-3.65 -0.2,-1.233 -0.417,-2.417 -0.65,-3.55 -0.2,-1.167 -0.434,-2.3 -0.7,-3.4 -0.233,-1.1 -0.5,-2.167 -0.8,-3.2 -0.267,-1.067 -0.5,-2.083 -0.7,-3.05 -0.2,-0.967 -0.384,-1.867 -0.55,-2.7 -0.133,-0.833 -0.25,-1.617 -0.35,-2.35 -0.067,-0.733 -0.101,-1.4 -0.101,-2 -0.033,-0.633 -0.017,-1.183 0.05,-1.65 0.066,-0.5 0.15,-0.917 0.25,-1.25 0.268,-0.733 0.65,-1.2 1.15,-1.4 0.4,-0.167 0.816,-0.233 1.25,-0.2 0.967,-0.033 2.05,0.317 3.25,1.05 1.733,1 3.633,2.633 5.7,4.9 2.066,2.3 4.25,5.117 6.55,8.45 1.166,1.667 2.333,3.45 3.5,5.35 1.2,1.9 2.383,3.9 3.55,6 0.8,1.4 1.601,2.85 2.4,4.35 0.8,1.467 1.583,2.983 2.35,4.55 0.8,1.567 1.583,3.167 2.351,4.8 0.8,1.633 1.583,3.3 2.35,5 0.767,1.667 1.517,3.383 2.25,5.15 0.767,1.767 1.5,3.55 2.2,5.35 0.633,1.566 1.25,3.017 1.85,4.35 0.634,1.367 1.233,2.6 1.8,3.7 1.134,2.233 2.316,4.117 3.551,5.65 1.232,1.534 2.583,2.833 4.05,3.9 0.767,0.5 1.566,0.983 2.399,1.45 0.867,0.467 1.768,0.917 2.7,1.35 l 2.601,1.05 8.149,2.15 46.8,3.15 58.5,8.1 c 2.101,0.4 4.101,0.8 6,1.2 1.934,0.4 3.768,0.817 5.5,1.25 1.768,0.4 3.45,0.817 5.051,1.25 1.6,0.434 3.116,0.883 4.55,1.35 1.433,0.433 2.8,0.9 4.1,1.4 1.333,0.467 2.601,0.95 3.8,1.45 1.2,0.467 2.334,0.983 3.4,1.55 1.133,0.533 2.184,1.083 3.15,1.65 1,0.567 1.967,1.15 2.899,1.75 0.967,0.6 1.867,1.233 2.7,1.9 0.867,0.667 1.717,1.35 2.55,2.05 0.8,0.7 1.583,1.434 2.351,2.2 0.467,0.433 0.949,0.917 1.449,1.45 0.467,0.533 0.95,1.1 1.45,1.699 0.533,0.566 1.05,1.167 1.55,1.801 0.5,0.633 0.983,1.283 1.45,1.949 0.5,0.634 0.983,1.301 1.45,2 0.5,0.634 0.967,1.283 1.4,1.95 0.433,0.667 0.85,1.317 1.25,1.95 0.399,0.633 0.767,1.25 1.1,1.85 0.333,0.566 0.633,1.117 0.9,1.65 0.3,0.533 0.533,1.033 0.699,1.5 0.2,0.434 0.351,0.834 0.45,1.2 0.101,0.366 0.15,0.667 0.15,0.899 0.033,0.234 -0.017,0.566 -0.15,1 -0.133,0.4 -0.316,0.851 -0.55,1.351 l -0.35,0.8 -3.4,5.85 c -0.367,0.5 -0.7,0.934 -1,1.301 -0.3,0.333 -0.583,0.6 -0.85,0.8 -0.5,0.399 -1.101,0.833 -1.801,1.3 -0.699,0.4 -1.482,0.834 -2.35,1.3 -0.867,0.434 -1.8,0.884 -2.8,1.351 -0.967,0.467 -2.017,0.934 -3.15,1.399 -1.066,0.434 -2.2,0.866 -3.399,1.3 -1.167,0.434 -2.367,0.867 -3.601,1.301 -1.2,0.399 -2.433,0.783 -3.7,1.149 -1.232,0.366 -2.467,0.717 -3.699,1.05 l -10.051,2.7 -44.25,13.7 -5.05,8.2 c -0.8,1.333 -1.683,2.667 -2.649,4 -0.934,1.333 -1.934,2.649 -3,3.95 -1.033,1.3 -2.117,2.583 -3.25,3.85 -1.101,1.267 -2.234,2.483 -3.4,3.65 -1.133,1.166 -2.3,2.283 -3.5,3.35 -1.133,1.066 -2.283,2.05 -3.45,2.95 -2.3,1.833 -4.467,3.283 -6.5,4.35 -1.267,0.667 -2.483,1.284 -3.649,1.851 -1.134,0.566 -2.184,1.083 -3.15,1.55 -0.967,0.466 -1.883,0.884 -2.75,1.25 -0.867,0.366 -1.684,0.683 -2.45,0.95 -0.733,0.266 -1.45,0.5 -2.149,0.699 -0.667,0.2 -1.301,0.367 -1.9,0.5 -0.6,0.101 -1.2,0.184 -1.8,0.25 -0.567,0.066 -1.134,0.101 -1.7,0.101 h -0.1 c -4.634,0 -7.45,-2.15 -8.45,-6.45 -0.467,-2.2 -0.483,-4.916 -0.05,-8.15 0.467,-3.266 1.383,-7.05 2.75,-11.35 l 2.1,-6.45 -10.05,-0.899 -46.851,-2.25 c -0.399,-0.066 -0.666,-0.101 -0.8,-0.101 -0.3,-0.1 -0.75,-0.2 -1.35,-0.3 l -8.55,-1 L 279,459.1 c -1.7,-0.066 -3.4,-0.116 -5.101,-0.149 -1.7,-0.034 -3.417,-0.05 -5.149,-0.05 h -0.5 c -1.801,0 -3.617,0.033 -5.45,0.1 -1.8,0.033 -3.601,0.084 -5.4,0.15 -1.767,0.066 -3.566,0.149 -5.399,0.25 -1.801,0.1 -3.584,0.217 -5.351,0.35 -1.767,0.133 -3.533,0.283 -5.3,0.45 -1.767,0.167 -3.533,0.35 -5.3,0.55 -1.733,0.2 -3.45,0.416 -5.15,0.65 -1.7,0.199 -3.399,0.434 -5.1,0.699 -1.634,0.268 -3.284,0.533 -4.95,0.801 -1.633,0.3 -3.233,0.6 -4.8,0.899 -1.567,0.3 -3.134,0.634 -4.7,1 -1.533,0.333 -3.033,0.684 -4.5,1.05 -1.467,0.367 -2.917,0.75 -4.35,1.15 -1.4,0.367 -2.783,0.767 -4.15,1.2 l -25.85,6.9 -12.45,2.65 -10.7,1.8 c -1.066,0.134 -2.084,0.25 -3.05,0.351 -0.934,0.1 -1.833,0.184 -2.7,0.25 l -7.25,0.1 c -0.367,0 -0.75,0.033 -1.15,0.1 -0.366,0.066 -0.717,0.15 -1.05,0.25 -0.333,0.134 -0.683,0.283 -1.05,0.45 -0.334,0.167 -0.7,0.384 -1.1,0.65 -0.4,0.233 -0.851,0.517 -1.351,0.85 l -1.55,1.101 c -1.267,0.899 -2.566,1.8 -3.9,2.699 -1.333,0.9 -2.684,1.783 -4.05,2.65 -1.366,0.867 -2.733,1.717 -4.1,2.55 -1.367,0.8 -2.733,1.583 -4.101,2.351 -1.333,0.766 -2.649,1.5 -3.949,2.199 -1.301,0.667 -2.551,1.301 -3.75,1.9 -1.2,0.566 -2.351,1.1 -3.45,1.6 -1.101,0.467 -2.117,0.867 -3.05,1.2 -0.467,0.167 -0.967,0.333 -1.5,0.5 -0.5,0.134 -1.033,0.25 -1.601,0.351 -0.533,0.1 -1.05,0.184 -1.55,0.25 -0.5,0.033 -1,0.066 -1.5,0.1 l -0.8,0.05 c -0.567,0 -1.05,-0.033 -1.45,-0.1 -0.367,-0.101 -0.6,-0.233 -0.7,-0.4 -0.033,-0.1 -0.05,-0.2 -0.05,-0.3 0.066,-0.1 0.184,-0.25 0.35,-0.45 0.2,-0.2 0.467,-0.45 0.801,-0.75 l 3.949,-3.3 c 3.167,-2.434 5.768,-5.533 7.801,-9.3 l 3.149,-5 c 0.4,-0.567 0.783,-1.083 1.15,-1.55 0.399,-0.5 0.767,-0.95 1.1,-1.351 0.366,-0.433 0.7,-0.8 1,-1.1 l 1.05,-1.05 c 0.301,-0.301 0.566,-0.584 0.801,-0.851 0.433,-0.5 0.732,-0.983 0.899,-1.45 0.167,-0.5 0.233,-1.05 0.2,-1.649 0,-0.3 -0.033,-0.65 -0.1,-1.05 l -0.2,-1.301 c -0.067,-0.633 -0.15,-1.199 -0.25,-1.699 -0.101,-0.5 -0.233,-0.95 -0.4,-1.351 -0.1,-0.433 -0.233,-0.816 -0.399,-1.149 -0.167,-0.367 -0.367,-0.684 -0.601,-0.95 -0.167,-0.3 -0.384,-0.583 -0.649,-0.851 -0.268,-0.232 -0.567,-0.449 -0.9,-0.649 -0.3,-0.233 -0.65,-0.45 -1.05,-0.65 -0.367,-0.2 -0.8,-0.384 -1.3,-0.55 -0.533,-0.233 -0.984,-0.467 -1.351,-0.7 -0.399,-0.233 -0.717,-0.45 -0.95,-0.649 -0.434,-0.467 -0.566,-0.9 -0.399,-1.301 0.167,-0.434 0.616,-0.833 1.35,-1.199 0.366,-0.167 0.8,-0.334 1.3,-0.5 0.5,-0.2 1.066,-0.367 1.7,-0.5 0.634,-0.167 1.317,-0.301 2.05,-0.4 0.768,-0.133 1.566,-0.25 2.4,-0.35 0.901,-0.135 1.834,-0.236 2.8,-0.302 z"
   id="path3"
   style="fill:#010101;fill-rule:evenodd" />
    
</svg>