<?xml version="1.0" encoding="utf-8"?>
<!-- Generator: Adobe Illustrator 29.5.1, SVG Export Plug-In . SVG Version: 9.03 Build 0)  -->
<svg version="1.1" baseProfile="tiny" id="Layer_1" xmlns="http://www.w3.org/2000/svg" xmlns:xlink="http://www.w3.org/1999/xlink"
	 x="0px" y="0px" viewBox="0 0 2952 1199.7" overflow="visible" xml:space="preserve">
<g id="VBGvQ6_00000102504719258854902780000001497743260979904703_">
	<g>
		<path d="M442.1,0l30,3.5c32.4,14,63.8,14.8,93.9,36.1c5.8,4.1,10.8,9.8,16.2,13.8c6,4.4,13.3,7.4,19.4,11.6
			c18.7,12.6,36.3,25.8,50.5,43.6c15.2-2,38.3-0.9,46.8,14.1c8.8,15.6,10.9,57.8-0.8,71.8c-1.9,2.3-5.3,2.7-5.1,5.9
			c6.1,24.7,13.2,49.3,17.7,74.4c4.1,22.5,6.6,45.8,7.4,68.6c1,27.9,1.1,57.8-7,84.5c4.5-1.8,3.8-6.4,5.5-10
			c17.1-36.8,63.6-79.2,103-90c10.5-2.9,9.7-0.4,18.2,0c2.9,0.1,5.3-1.1,8.7-0.9c11,0.6,25.2,7.5,30.8,17.2c1.8,3.2,3.6,10.8,6,12
			c33.1,2.9,60.3,16.3,88.4,32.6c44.5,25.6,64,43.4,94.7,84.3c2.8,3.8,14.4,22.4,17.1,22.9l122,4c38.7,6.2,77,9.4,116,13
			c51.7,4.7,103.7,15.9,154.7,25.3c79.8,14.7,157.4,37.8,236.8,53.2c67,13,135.2,20,201.4,36.5c8.8-27.5,19.8-47.4,41.6-66.5
			c23.6-20.6,49.4-33,78.6-43.4c9.5-3.4,9.8-6.5,22-6c38.8,1.4,74.1,12,108.9,28.1c53.8,24.9,93.8,48.5,155.2,55.8
			c17.6,2.1,36.8,0.3,53.5,7.5c19.7,8.5,38.2,42.5,53,59c4,4.5,10.3,11.8,16.4,12.5c26.4-2,53.9,5.5,79.3-3.2
			c9-62.5,42-117.7,84.7-162.8c29.4-31.2,74-71.5,110.6-93.4c43.1-25.8,86.1-6.4,128.9,10.9c29.7,12.1,72.1,30.6,82.5,63.5
			c1.7,5.3,2,29.1,1.3,35.2c-4.9,38.9-48.4,67.7-80.1,84.9c-19.9,10.8-29.7,12.2-51.2,16.8c-1.4,0.3-2.5-0.1-3.5,1.5
			c25.9,20.8,53.9,39.2,79,61c16.1,14,31.4,29.7,47,44c10.7,9.8,18.8,19.7,23.3,33.7c4.4,13.7,2.8,27.2,6.7,40.8v10l-2.6,13.6
			l2.6,15.4v23c-11.8,51-43.8,96.2-86.3,126.2c-82.2,58.2-186.9,90.9-283.5,116.5c-81,21.4-156.8,38.8-240.7,46.3
			c-11.8,1-25.5,0.3-36.9,2.1c-8,1.2-18.8,6.3-27.6,8.4c-64.3,15.4-144,15.9-210.5,19.4c-209.6,11.1-421.6,13.3-631.9,8
			c-29.8-0.8-59.4-1.4-89-2.9c-74.2-3.9-145.5-14.8-220-18c-97.6-4.1-190.3-4.5-286.5-26.5c-18.5-4.2-32.5-10.8-49.8-16.2
			c-13.5-4.2-28.1-6.5-42-11c-10.9-3.6-22.8-10.1-33-13c-12.3-3.5-28.3-4.7-41.4-7.6c-44.6-9.8-85.1-26.6-129-37
			c-55.2-13.1-103.2-19.9-156.8-41.2c-62.5-24.8-132.2-55.6-187.7-93.2c-6.7-4.6-18.5-15.4-24.7-18.3c-3.7-1.7-7.9-1.7-12.3-3.7
			c-12.2-5.6-23-16.9-34-24c-31.1-20.1-52-25.8-77.8-56.1c-16.3-19.1-16.2-24.6-24-47c-1.2-3.5-4.2-6.7-5.7-10.3
			c-6.1-15-9.9-28.9-10.8-45.2c-3.8-66.8,5.4-133,18.8-198c-7.4-24-2.2-50.6-4.9-75.9c-2.5-24.2-12.2-46.9-15-71
			c-3.6-31.5-3.7-75.5,0-107c1.5-13.2,5.8-24.7,10.8-36.9c-6.8-8.3-15.1-15.5-17.6-26.4c-1-4.3-0.6-9.3-2.3-13.2
			c0.2-2.3-0.3-4.8,0-7c4.1-31.9,50.6-37.6,76-38.5c44.7-41.5,85.5-89.1,144.2-110.8c19.2-7.1,38.1-15.8,57.5-22.5
			C315.8,5.3,358.4,1.3,398.1,0H442.1z"/>
	</g>
</g>
</svg>
