<?xml version="1.0" standalone="no"?>
<!DOCTYPE svg PUBLIC "-//W3C//DTD SVG 20010904//EN"
 "http://www.w3.org/TR/2001/REC-SVG-20010904/DTD/svg10.dtd">
<svg version="1.0" xmlns="http://www.w3.org/2000/svg"
 width="1536.000000pt" height="291.000000pt" viewBox="0 0 1536.000000 291.000000"
 preserveAspectRatio="xMidYMid meet">
<metadata>
Created by potrace 1.16, written by Peter Selinger 2001-2019
</metadata>
<g transform="translate(0.000000,291.000000) scale(0.100000,-0.100000)"
fill="#000000" stroke="none">
<path d="M6169 2887 c-37 -12 -82 -34 -100 -49 -65 -49 -334 -283 -387 -337
-58 -58 -372 -264 -437 -288 -73 -26 -294 -35 -532 -23 -683 36 -1112 21
-1568 -56 -386 -65 -529 -102 -965 -249 -417 -140 -660 -213 -940 -281 -303
-74 -559 -149 -687 -200 -104 -42 -435 -211 -499 -254 -26 -18 -47 -42 -50
-57 -6 -23 0 -33 42 -71 62 -56 200 -149 284 -192 138 -69 252 -97 510 -120
135 -12 361 -52 572 -101 250 -57 313 -67 493 -78 343 -21 631 -25 786 -10
175 16 406 16 514 -1 44 -6 161 -30 260 -52 99 -21 239 -48 310 -59 229 -35
312 -66 521 -192 146 -88 300 -160 408 -191 103 -30 133 -32 165 -10 31 22 45
60 66 178 25 138 36 149 157 158 51 3 192 7 313 7 311 2 736 17 970 35 110 8
295 20 410 26 223 11 432 33 716 76 222 33 299 31 390 -13 37 -17 140 -75 230
-129 165 -98 364 -198 452 -228 72 -24 134 -21 198 12 56 28 83 58 194 212 69
96 305 339 332 342 10 1 133 2 273 3 445 3 1218 72 1675 150 1042 178 1041
178 1205 179 187 1 189 0 370 -135 287 -214 519 -324 844 -398 267 -62 344
-63 366 -6 13 35 -5 305 -25 375 -29 98 -30 163 -5 215 41 85 209 213 565 431
146 89 272 204 345 314 24 36 82 112 130 170 138 168 199 251 229 315 40 83
95 298 86 333 -10 40 -94 116 -150 136 -103 35 -201 19 -424 -69 -352 -137
-614 -269 -1111 -557 -398 -231 -411 -239 -610 -383 -178 -129 -266 -185 -367
-232 -143 -66 -132 -65 -683 -53 -941 21 -1004 24 -1032 42 -37 25 -54 70 -77
207 -25 147 -47 203 -93 231 -49 31 -122 21 -318 -44 -90 -30 -166 -53 -168
-51 -2 2 -1 17 3 34 6 28 88 121 107 121 4 0 8 5 8 10 0 19 -42 10 -99 -20
-31 -17 -130 -84 -220 -150 -248 -180 -273 -189 -513 -171 -249 18 -544 69
-1023 176 -278 62 -389 84 -800 159 -382 70 -486 84 -722 95 -179 8 -196 10
-247 35 -69 34 -98 68 -171 204 -32 59 -110 199 -174 311 -147 259 -158 267
-302 218z"/>
</g>
</svg>
